<?xml version="1.0" encoding="UTF-8" standalone="no"?>
<!-- Created with Inkscape (http://www.inkscape.org/) -->

<svg
   xmlns:dc="http://purl.org/dc/elements/1.1/"
   xmlns:cc="http://creativecommons.org/ns#"
   xmlns:rdf="http://www.w3.org/1999/02/22-rdf-syntax-ns#"
   xmlns:svg="http://www.w3.org/2000/svg"
   xmlns="http://www.w3.org/2000/svg"
   xmlns:sodipodi="http://sodipodi.sourceforge.net/DTD/sodipodi-0.dtd"
   xmlns:inkscape="http://www.inkscape.org/namespaces/inkscape"
   width="714.0799"
   height="443.18771"
   viewBox="0 0 188.93363 117.26009"
   version="1.1"
   id="svg1402"
   inkscape:version="0.92.2 (5c3e80d, 2017-08-06)"
   sodipodi:docname="logoALMS.svg">
  <defs
     id="defs1396">
    <clipPath
       clipPathUnits="userSpaceOnUse"
       id="clipPath955">
      <path
         d="M 0,841.891 H 595.281 V 0 H 0 Z"
         id="path953"
         inkscape:connector-curvature="0" />
    </clipPath>
    <clipPath
       clipPathUnits="userSpaceOnUse"
       id="clipPath1151">
      <path
         d="M 0,841.891 H 595.281 V 0 H 0 Z"
         id="path1149"
         inkscape:connector-curvature="0" />
    </clipPath>
  </defs>
  <sodipodi:namedview
     id="base"
     pagecolor="#ffffff"
     bordercolor="#666666"
     borderopacity="1.0"
     inkscape:pageopacity="0.0"
     inkscape:pageshadow="2"
     inkscape:zoom="0.35"
     inkscape:cx="-213.63436"
     inkscape:cy="-187.76915"
     inkscape:document-units="mm"
     inkscape:current-layer="layer1"
     showgrid="false"
     units="px"
     fit-margin-top="2"
     fit-margin-left="2"
     fit-margin-right="2"
     fit-margin-bottom="2"
     inkscape:window-width="1366"
     inkscape:window-height="704"
     inkscape:window-x="0"
     inkscape:window-y="27"
     inkscape:window-maximized="1" />
  <metadata
     id="metadata1399">
    <rdf:RDF>
      <cc:Work
         rdf:about="">
        <dc:format>image/svg+xml</dc:format>
        <dc:type
           rdf:resource="http://purl.org/dc/dcmitype/StillImage" />
        <dc:title></dc:title>
      </cc:Work>
    </rdf:RDF>
  </metadata>
  <g
     inkscape:label="Layer 1"
     inkscape:groupmode="layer"
     id="layer1"
     transform="translate(-3.8069864,-42.578293)">
    <g
       transform="matrix(0.35277777,0,0,-0.35277777,-5.2851353,329.78727)"
       id="g1275">
      <g
         id="g949">
        <g
           clip-path="url(#clipPath955)"
           id="g951">
          <g
             transform="translate(220.6855,598.9629)"
             id="g957">
            <path
               inkscape:connector-curvature="0"
               id="path959"
               style="fill:#1c1652;fill-opacity:1;fill-rule:nonzero;stroke:none"
               d="m 0,0 c 3.529,4.964 -44.485,102.47 -55.779,102.588 -11.293,0.119 -143.568,-219.899 -110.068,-217.792 40.738,2.563 35.276,90.252 348.572,98.117 -194.208,1.653 -290.513,-9.111 -290.513,-9.111 0,0 45.184,79.156 51.991,74.501 0,0 25.928,-49.879 28.662,-50.185 C -24.401,-2.188 -3.528,-4.964 0,0" />
          </g>
          <g
             transform="translate(220.6855,598.9629)"
             id="g961">
            <path
               inkscape:connector-curvature="0"
               id="path963"
               style="fill:none;stroke:#ffffff;stroke-width:1;stroke-linecap:butt;stroke-linejoin:bevel;stroke-miterlimit:4;stroke-dasharray:none;stroke-opacity:1"
               d="m 0,0 c 3.529,4.964 -44.485,102.47 -55.779,102.588 -11.293,0.119 -143.568,-219.899 -110.068,-217.792 40.738,2.563 35.276,90.252 348.572,98.117 -194.208,1.653 -290.513,-9.111 -290.513,-9.111 0,0 45.184,79.156 51.991,74.501 0,0 25.928,-49.879 28.662,-50.185 C -24.401,-2.188 -3.528,-4.964 0,0 Z" />
          </g>
          <g
             transform="translate(160.2905,557.9473)"
             id="g965">
            <path
               inkscape:connector-curvature="0"
               id="path967"
               style="fill:#1c1652;fill-opacity:1;fill-rule:nonzero;stroke:none"
               d="m 0,0 5.699,2.793 5.008,225.252 H -5.946 Z" />
          </g>
          <g
             transform="translate(144.4395,747.8379)"
             id="g969">
            <path
               inkscape:connector-curvature="0"
               id="path971"
               style="fill:#1c1652;fill-opacity:1;fill-rule:nonzero;stroke:none"
               d="m 0,0 c -14.977,-1.79 -28.551,14.811 -21.638,18.712 0.668,1.471 0.475,2.235 -1.125,1.953 -16.279,-2.123 -26.57,10.689 -24.778,24.049 0.119,0.896 -0.53,1.078 -1.054,1.111 -0.607,0.039 -1.09,-0.647 -1.393,-1.111 -5.057,-7.722 -13.624,-12.419 -21.44,-17.372 -8.967,-5.69 -22.844,-12.988 -28.839,-13.968 -5.297,-0.862 -13.624,-1.783 -16.645,2.306 -0.619,0.98 -0.006,1.084 0.738,1.47 9.933,4.725 10.974,3.679 29.178,14.589 15.975,9.578 31.392,22.161 46.215,29.27 6.518,3.123 26.729,5.977 33.779,-3.202 C 5.006,42.166 -11.851,35.353 -12.333,32.589 -13.265,27.251 -7.719,17.333 6.704,20.953 L 8.601,21.521 9.049,2.489 8.401,2.149 C 5.587,0.837 2.753,0.164 0,0" />
          </g>
          <g
             transform="translate(90.5273,783.8838)"
             id="g973">
            <path
               inkscape:connector-curvature="0"
               id="path975"
               style="fill:#1c1652;fill-opacity:1;fill-rule:nonzero;stroke:none"
               d="m 0,0 c 0.483,0.515 2.635,1.497 2.759,0.652 0.331,-2.22 1.579,-5.245 2.96,-7.702 0.468,-0.829 -0.56,-1.888 -1.208,-2.613 -9.242,-7.396 -20.149,-14.433 -29.571,-18.392 -3.028,-0.999 -6.387,-1.561 -9.623,-1.313 -2.177,0.164 -5.207,0.046 -6.255,1.861 -0.241,0.426 0.104,1 0.4,1.387 C -25.908,-20.405 -14.693,-12.362 0,0" />
          </g>
          <g
             transform="translate(96.416,772.2798)"
             id="g977">
            <path
               inkscape:connector-curvature="0"
               id="path979"
               style="fill:#1c1652;fill-opacity:1;fill-rule:nonzero;stroke:none"
               d="m 0,0 c 0.428,0.431 1.173,0.941 2.021,0.607 1.988,-2.188 3.085,-3.227 5.416,-4.201 0.745,-0.306 1.69,-1.28 0.447,-2.286 -13.05,-10.48 -22.935,-19.398 -35.888,-16.04 -0.415,0.105 -0.317,1.339 0.047,1.543 C -20.271,-16.185 -11.429,-11.57 0,0" />
          </g>
          <g
             transform="translate(107.0264,765.9297)"
             id="g981">
            <path
               inkscape:connector-curvature="0"
               id="path983"
               style="fill:#1c1652;fill-opacity:1;fill-rule:nonzero;stroke:none"
               d="M 0,0 C 2.033,1.299 0.337,-0.294 9.173,-0.915 10.317,-0.993 9.042,-3.293 8.635,-4.326 4.593,-9.898 -2.304,-15.008 -8.119,-17.667 c -2.814,-1.294 -6.608,-1.967 -9.408,-0.607 -0.276,0.129 -0.339,0.6 -0.498,0.744 -0.573,0.55 3.774,3.548 7.787,6.997 C -6.429,-7.252 -1.131,-1.75 0,0" />
          </g>
          <g
             transform="translate(180.8931,747.8379)"
             id="g985">
            <path
               inkscape:connector-curvature="0"
               id="path987"
               style="fill:#1c1652;fill-opacity:1;fill-rule:nonzero;stroke:none"
               d="m 0,0 c 14.977,-1.79 28.551,14.811 21.639,18.712 -0.67,1.471 -0.475,2.235 1.124,1.953 16.279,-2.123 26.57,10.689 24.777,24.049 -0.117,0.896 0.531,1.078 1.054,1.111 0.608,0.039 1.09,-0.647 1.394,-1.111 5.057,-7.722 13.622,-12.419 21.44,-17.372 8.966,-5.69 22.843,-12.988 28.837,-13.968 5.299,-0.862 13.626,-1.783 16.645,2.306 0.622,0.98 0.008,1.084 -0.737,1.47 -9.932,4.725 -10.975,3.679 -29.177,14.589 C 71.021,41.317 55.604,53.9 40.78,61.009 34.263,64.132 14.052,66.986 7.001,57.807 -5.008,42.166 11.851,35.353 12.333,32.589 13.264,27.251 7.719,17.333 -6.705,20.953 L -8.603,21.521 -9.05,2.489 -8.402,2.149 C -5.588,0.837 -2.751,0.164 0,0" />
          </g>
          <g
             transform="translate(234.8062,783.8838)"
             id="g989">
            <path
               inkscape:connector-curvature="0"
               id="path991"
               style="fill:#1c1652;fill-opacity:1;fill-rule:nonzero;stroke:none"
               d="m 0,0 c -0.483,0.515 -2.634,1.497 -2.759,0.652 -0.331,-2.22 -1.58,-5.245 -2.959,-7.702 -0.47,-0.829 0.559,-1.888 1.207,-2.613 9.244,-7.396 20.148,-14.433 29.571,-18.392 3.028,-0.999 6.387,-1.561 9.622,-1.313 2.18,0.164 5.207,0.046 6.255,1.861 0.243,0.426 -0.103,1 -0.399,1.387 C 25.909,-20.405 14.693,-12.362 0,0" />
          </g>
          <g
             transform="translate(228.9155,772.2798)"
             id="g993">
            <path
               inkscape:connector-curvature="0"
               id="path995"
               style="fill:#1c1652;fill-opacity:1;fill-rule:nonzero;stroke:none"
               d="M 0,0 C -0.428,0.431 -1.172,0.941 -2.021,0.607 -4.008,-1.581 -5.105,-2.62 -7.436,-3.594 -8.181,-3.9 -9.126,-4.874 -7.885,-5.88 5.166,-16.36 15.05,-25.278 28.005,-21.92 c 0.413,0.105 0.316,1.339 -0.05,1.543 C 20.272,-16.185 11.429,-11.57 0,0" />
          </g>
          <g
             transform="translate(218.3066,765.9297)"
             id="g997">
            <path
               inkscape:connector-curvature="0"
               id="path999"
               style="fill:#1c1652;fill-opacity:1;fill-rule:nonzero;stroke:none"
               d="m 0,0 c -2.034,1.299 -0.337,-0.294 -9.173,-0.915 -1.146,-0.078 0.131,-2.378 0.537,-3.411 4.043,-5.572 10.94,-10.682 16.755,-13.341 2.815,-1.294 6.609,-1.967 9.409,-0.607 0.276,0.129 0.338,0.6 0.497,0.744 0.572,0.55 -3.774,3.548 -7.787,6.997 C 6.429,-7.252 1.133,-1.75 0,0" />
          </g>
          <g
             transform="translate(162.6616,812.6357)"
             id="g1001">
            <path
               inkscape:connector-curvature="0"
               id="path1003"
               style="fill:#1c1652;fill-opacity:1;fill-rule:nonzero;stroke:none"
               d="m 0,0 c 7.009,0 12.7,-5.39 12.7,-12.027 0,-6.639 -5.691,-12.022 -12.7,-12.022 -7.007,0 -12.69,5.383 -12.69,12.022 C -12.69,-5.39 -7.007,0 0,0" />
          </g>
          <g
             transform="translate(206.8647,716.707)"
             id="g1005">
            <path
               inkscape:connector-curvature="0"
               id="path1007"
               style="fill:#1c1652;fill-opacity:1;fill-rule:nonzero;stroke:none"
               d="m 0,0 c 0.819,8.657 -6.534,18.568 -18.253,19.528 -4.077,0.333 -10.202,0.359 -13.747,-2.666 -3.358,-2.867 5.421,-8.859 10.029,-9.29 6.173,-0.575 9.422,2.235 10.527,3.868 0.379,0.549 1.062,0.326 1.303,-0.235 2.8,-19.805 -18.505,-24.319 -34.051,-28.487 3.22,-0.864 6.193,-1.711 8.653,-2.678 4.355,-1.712 8.078,-3.556 11.252,-5.491 C -12.09,-19.48 -1.076,-11.432 0,0" />
          </g>
          <g
             transform="translate(177.6162,637.5356)"
             id="g1009">
            <path
               inkscape:connector-curvature="0"
               id="path1011"
               style="fill:#1c1652;fill-opacity:1;fill-rule:nonzero;stroke:none"
               d="m 0,0 v 0 c -4.818,2.901 -10.077,5.467 -14.943,8.047 -2.845,1.509 -5.555,3.023 -7.963,4.614 -13.762,9.089 -13.873,24.566 6.187,32.144 0.578,0.22 1.172,0.444 1.776,0.67 -6.003,2.256 -13.135,4.931 -19.907,8.246 C -59.189,38.892 -51.026,18.677 -43.655,10.65 -40.037,6.718 -35.122,3.263 -29.889,0 c 4.978,-3.105 10.241,-6.038 14.946,-9.048" />
          </g>
          <g
             transform="translate(182.5757,691.2593)"
             id="g1013">
            <path
               inkscape:connector-curvature="0"
               id="path1015"
               style="fill:#1c1652;fill-opacity:1;fill-rule:nonzero;stroke:none"
               d="m 0,0 c -3.175,1.934 -6.896,3.779 -11.251,5.491 -2.461,0.967 -5.434,1.815 -8.653,2.678 -15.546,4.168 -36.851,8.682 -34.051,28.487 0.242,0.561 0.925,0.784 1.297,0.235 1.104,-1.634 4.352,-4.443 10.533,-3.868 4.609,0.432 13.389,6.422 10.029,9.29 -3.545,3.025 -9.67,2.999 -13.747,2.667 C -57.563,44.019 -64.916,34.107 -64.102,25.451 -63.023,14.018 -52.008,5.971 -39.81,0 c 6.772,-3.315 13.903,-5.988 19.906,-8.246 0.603,-0.226 1.196,-0.451 1.774,-0.669 20.06,-7.579 19.95,-23.056 6.189,-32.145 -2.409,-1.592 -5.119,-3.105 -7.963,-4.614 4.865,-2.58 10.125,-5.145 14.944,-8.047 5.231,3.262 10.146,6.718 13.761,10.649 C 16.178,-35.044 24.341,-14.83 0,0" />
          </g>
          <g
             transform="translate(161.2988,566.147)"
             id="g1017">
            <path
               inkscape:connector-curvature="0"
               id="path1019"
               style="fill:#2a3586;fill-opacity:1;fill-rule:nonzero;stroke:none"
               d="M 0,0 3.229,0.646 8.726,217.049 H -5.958 Z" />
          </g>
          <g
             transform="translate(161.2988,566.147)"
             id="g1021">
            <path
               inkscape:connector-curvature="0"
               id="path1023"
               style="fill:none;stroke:#ffffff;stroke-width:1;stroke-linecap:butt;stroke-linejoin:bevel;stroke-miterlimit:4;stroke-dasharray:none;stroke-opacity:1"
               d="M 0,0 3.229,0.646 8.726,217.049 H -5.958 Z" />
          </g>
          <g
             transform="translate(146.6069,749.5537)"
             id="g1025">
            <path
               inkscape:connector-curvature="0"
               id="path1027"
               style="fill:#2a3586;fill-opacity:1;fill-rule:nonzero;stroke:none"
               d="m 0,0 c -13.204,-1.578 -25.172,13.06 -19.078,16.499 0.589,1.296 0.419,1.97 -0.992,1.722 -14.353,-1.872 -23.428,9.425 -21.847,21.205 0.104,0.789 -0.468,0.95 -0.93,0.979 -0.535,0.034 -0.961,-0.571 -1.229,-0.979 -4.458,-6.809 -12.011,-10.951 -18.902,-15.318 -7.907,-5.017 -20.144,-11.452 -25.43,-12.316 -4.67,-0.76 -12.011,-1.572 -14.675,2.034 -0.547,0.863 -0.006,0.956 0.65,1.296 8.758,4.165 9.677,3.243 25.727,12.863 14.086,8.446 27.68,19.54 40.749,25.808 5.748,2.754 23.568,5.271 29.784,-2.823 C 4.416,37.179 -10.448,31.171 -10.874,28.734 -11.695,24.028 -6.806,15.283 5.912,18.475 L 7.584,18.976 7.98,2.195 7.408,1.896 C 4.927,0.738 2.428,0.145 0,0" />
          </g>
          <g
             transform="translate(146.6069,749.5537)"
             id="g1029">
            <path
               inkscape:connector-curvature="0"
               id="path1031"
               style="fill:none;stroke:#ffffff;stroke-width:1;stroke-linecap:butt;stroke-linejoin:bevel;stroke-miterlimit:4;stroke-dasharray:none;stroke-opacity:1"
               d="m 0,0 c -13.204,-1.578 -25.172,13.06 -19.078,16.499 0.589,1.296 0.419,1.97 -0.992,1.722 -14.353,-1.872 -23.428,9.425 -21.847,21.205 0.104,0.789 -0.468,0.95 -0.93,0.979 -0.535,0.034 -0.961,-0.571 -1.229,-0.979 -4.458,-6.809 -12.011,-10.951 -18.902,-15.318 -7.907,-5.017 -20.144,-11.452 -25.43,-12.316 -4.67,-0.76 -12.011,-1.572 -14.675,2.034 -0.547,0.863 -0.006,0.956 0.65,1.296 8.758,4.165 9.677,3.243 25.727,12.863 14.086,8.446 27.68,19.54 40.749,25.808 5.748,2.754 23.568,5.271 29.784,-2.823 C 4.416,37.179 -10.448,31.171 -10.874,28.734 -11.695,24.028 -6.806,15.283 5.912,18.475 L 7.584,18.976 7.98,2.195 7.408,1.896 C 4.927,0.738 2.428,0.145 0,0 Z" />
          </g>
          <g
             transform="translate(99.0718,781.3359)"
             id="g1033">
            <path
               inkscape:connector-curvature="0"
               id="path1035"
               style="fill:#2a3586;fill-opacity:1;fill-rule:nonzero;stroke:none"
               d="M 0,0 C 0.426,0.455 2.323,1.319 2.433,0.576 2.725,-1.383 3.826,-4.05 5.042,-6.216 5.456,-6.947 4.549,-7.88 3.978,-8.52 c -8.149,-6.521 -17.766,-12.726 -26.073,-16.216 -2.671,-0.882 -5.633,-1.377 -8.485,-1.158 -1.921,0.144 -4.592,0.04 -5.516,1.642 -0.213,0.374 0.091,0.881 0.353,1.221 C -22.843,-17.991 -12.955,-10.9 0,0" />
          </g>
          <g
             transform="translate(99.0718,781.3359)"
             id="g1037">
            <path
               inkscape:connector-curvature="0"
               id="path1039"
               style="fill:none;stroke:#ffffff;stroke-width:1;stroke-linecap:butt;stroke-linejoin:bevel;stroke-miterlimit:4;stroke-dasharray:none;stroke-opacity:1"
               d="M 0,0 C 0.426,0.455 2.323,1.319 2.433,0.576 2.725,-1.383 3.826,-4.05 5.042,-6.216 5.456,-6.947 4.549,-7.88 3.978,-8.52 c -8.149,-6.521 -17.766,-12.726 -26.073,-16.216 -2.671,-0.882 -5.633,-1.377 -8.485,-1.158 -1.921,0.144 -4.592,0.04 -5.516,1.642 -0.213,0.374 0.091,0.881 0.353,1.221 C -22.843,-17.991 -12.955,-10.9 0,0 Z" />
          </g>
          <g
             transform="translate(104.2646,771.105)"
             id="g1041">
            <path
               inkscape:connector-curvature="0"
               id="path1043"
               style="fill:#2a3586;fill-opacity:1;fill-rule:nonzero;stroke:none"
               d="m 0,0 c 0.377,0.379 1.034,0.829 1.782,0.535 1.752,-1.93 2.719,-2.846 4.776,-3.704 0.656,-0.27 1.489,-1.129 0.394,-2.016 -11.508,-9.24 -20.223,-17.104 -31.644,-14.143 -0.366,0.093 -0.28,1.182 0.042,1.36 C -17.874,-14.27 -10.078,-10.202 0,0" />
          </g>
          <g
             transform="translate(104.2646,771.105)"
             id="g1045">
            <path
               inkscape:connector-curvature="0"
               id="path1047"
               style="fill:none;stroke:#ffffff;stroke-width:1;stroke-linecap:butt;stroke-linejoin:bevel;stroke-miterlimit:4;stroke-dasharray:none;stroke-opacity:1"
               d="m 0,0 c 0.377,0.379 1.034,0.829 1.782,0.535 1.752,-1.93 2.719,-2.846 4.776,-3.704 0.656,-0.27 1.489,-1.129 0.394,-2.016 -11.508,-9.24 -20.223,-17.104 -31.644,-14.143 -0.366,0.093 -0.28,1.182 0.042,1.36 C -17.874,-14.27 -10.078,-10.202 0,0 Z" />
          </g>
          <g
             transform="translate(113.6191,765.5054)"
             id="g1049">
            <path
               inkscape:connector-curvature="0"
               id="path1051"
               style="fill:#2a3586;fill-opacity:1;fill-rule:nonzero;stroke:none"
               d="M 0,0 C 1.793,1.146 0.298,-0.259 8.089,-0.807 9.098,-0.876 7.974,-2.904 7.615,-3.814 4.051,-8.728 -2.031,-13.232 -7.159,-15.577 c -2.48,-1.141 -5.825,-1.734 -8.296,-0.536 -0.242,0.115 -0.297,0.53 -0.437,0.657 -0.505,0.484 3.326,3.128 6.866,6.169 C -5.668,-6.394 -0.997,-1.543 0,0" />
          </g>
          <g
             transform="translate(113.6191,765.5054)"
             id="g1053">
            <path
               inkscape:connector-curvature="0"
               id="path1055"
               style="fill:none;stroke:#ffffff;stroke-width:1;stroke-linecap:butt;stroke-linejoin:bevel;stroke-miterlimit:4;stroke-dasharray:none;stroke-opacity:1"
               d="M 0,0 C 1.793,1.146 0.298,-0.259 8.089,-0.807 9.098,-0.876 7.974,-2.904 7.615,-3.814 4.051,-8.728 -2.031,-13.232 -7.159,-15.577 c -2.48,-1.141 -5.825,-1.734 -8.296,-0.536 -0.242,0.115 -0.297,0.53 -0.437,0.657 -0.505,0.484 3.326,3.128 6.866,6.169 C -5.668,-6.394 -0.997,-1.543 0,0 Z" />
          </g>
          <g
             transform="translate(178.75,749.5537)"
             id="g1057">
            <path
               inkscape:connector-curvature="0"
               id="path1059"
               style="fill:#2a3586;fill-opacity:1;fill-rule:nonzero;stroke:none"
               d="m 0,0 c 13.205,-1.578 25.174,13.06 19.08,16.499 -0.591,1.296 -0.42,1.97 0.991,1.722 14.353,-1.872 23.428,9.425 21.846,21.205 -0.103,0.789 0.469,0.95 0.93,0.979 0.537,0.034 0.962,-0.571 1.229,-0.979 4.459,-6.809 12.012,-10.951 18.903,-15.318 7.907,-5.017 20.144,-11.452 25.428,-12.316 4.673,-0.76 12.013,-1.572 14.676,2.034 0.548,0.863 0.008,0.956 -0.65,1.296 -8.758,4.165 -9.676,3.243 -25.726,12.863 C 62.622,36.431 49.027,47.525 35.958,53.793 30.21,56.547 12.39,59.064 6.174,50.97 -4.415,37.179 10.449,31.171 10.875,28.734 11.696,24.028 6.806,15.283 -5.912,18.475 L -7.584,18.976 -7.979,2.195 -7.408,1.896 C -4.926,0.738 -2.426,0.145 0,0" />
          </g>
          <g
             transform="translate(178.75,749.5537)"
             id="g1061">
            <path
               inkscape:connector-curvature="0"
               id="path1063"
               style="fill:none;stroke:#ffffff;stroke-width:1;stroke-linecap:butt;stroke-linejoin:bevel;stroke-miterlimit:4;stroke-dasharray:none;stroke-opacity:1"
               d="m 0,0 c 13.205,-1.578 25.174,13.06 19.08,16.499 -0.591,1.296 -0.42,1.97 0.991,1.722 14.353,-1.872 23.428,9.425 21.846,21.205 -0.103,0.789 0.469,0.95 0.93,0.979 0.537,0.034 0.962,-0.571 1.229,-0.979 4.459,-6.809 12.012,-10.951 18.903,-15.318 7.907,-5.017 20.144,-11.452 25.428,-12.316 4.673,-0.76 12.013,-1.572 14.676,2.034 0.548,0.863 0.008,0.956 -0.65,1.296 -8.758,4.165 -9.676,3.243 -25.726,12.863 C 62.622,36.431 49.027,47.525 35.958,53.793 30.21,56.547 12.39,59.064 6.174,50.97 -4.415,37.179 10.449,31.171 10.875,28.734 11.696,24.028 6.806,15.283 -5.912,18.475 L -7.584,18.976 -7.979,2.195 -7.408,1.896 C -4.926,0.738 -2.426,0.145 0,0 Z" />
          </g>
          <g
             transform="translate(226.2876,781.3359)"
             id="g1065">
            <path
               inkscape:connector-curvature="0"
               id="path1067"
               style="fill:#2a3586;fill-opacity:1;fill-rule:nonzero;stroke:none"
               d="m 0,0 c -0.426,0.455 -2.323,1.319 -2.434,0.576 -0.292,-1.959 -1.392,-4.626 -2.608,-6.792 -0.415,-0.731 0.492,-1.664 1.064,-2.304 8.149,-6.521 17.765,-12.726 26.073,-16.216 2.671,-0.882 5.632,-1.377 8.485,-1.158 1.921,0.144 4.59,0.04 5.515,1.642 0.214,0.374 -0.091,0.881 -0.352,1.221 C 22.844,-17.991 12.954,-10.9 0,0 Z" />
          </g>
          <g
             transform="translate(226.2876,781.3359)"
             id="g1069">
            <path
               inkscape:connector-curvature="0"
               id="path1071"
               style="fill:none;stroke:#ffffff;stroke-width:1;stroke-linecap:butt;stroke-linejoin:bevel;stroke-miterlimit:4;stroke-dasharray:none;stroke-opacity:1"
               d="m 0,0 c -0.426,0.455 -2.323,1.319 -2.434,0.576 -0.292,-1.959 -1.392,-4.626 -2.608,-6.792 -0.415,-0.731 0.492,-1.664 1.064,-2.304 8.149,-6.521 17.765,-12.726 26.073,-16.216 2.671,-0.882 5.632,-1.377 8.485,-1.158 1.921,0.144 4.59,0.04 5.515,1.642 0.214,0.374 -0.091,0.881 -0.352,1.221 C 22.844,-17.991 12.954,-10.9 0,0 Z" />
          </g>
          <g
             transform="translate(221.0933,771.105)"
             id="g1073">
            <path
               inkscape:connector-curvature="0"
               id="path1075"
               style="fill:#2a3586;fill-opacity:1;fill-rule:nonzero;stroke:none"
               d="m 0,0 c -0.377,0.379 -1.034,0.829 -1.782,0.535 -1.752,-1.93 -2.719,-2.846 -4.775,-3.704 -0.656,-0.27 -1.49,-1.129 -0.395,-2.016 11.507,-9.24 20.222,-17.104 31.644,-14.143 0.365,0.093 0.28,1.182 -0.043,1.36 C 17.874,-14.27 10.077,-10.202 0,0" />
          </g>
          <g
             transform="translate(221.0933,771.105)"
             id="g1077">
            <path
               inkscape:connector-curvature="0"
               id="path1079"
               style="fill:none;stroke:#ffffff;stroke-width:1;stroke-linecap:butt;stroke-linejoin:bevel;stroke-miterlimit:4;stroke-dasharray:none;stroke-opacity:1"
               d="m 0,0 c -0.377,0.379 -1.034,0.829 -1.782,0.535 -1.752,-1.93 -2.719,-2.846 -4.775,-3.704 -0.656,-0.27 -1.49,-1.129 -0.395,-2.016 11.507,-9.24 20.222,-17.104 31.644,-14.143 0.365,0.093 0.28,1.182 -0.043,1.36 C 17.874,-14.27 10.077,-10.202 0,0 Z" />
          </g>
          <g
             transform="translate(211.7388,765.5054)"
             id="g1081">
            <path
               inkscape:connector-curvature="0"
               id="path1083"
               style="fill:#2a3586;fill-opacity:1;fill-rule:nonzero;stroke:none"
               d="m 0,0 c -1.793,1.146 -0.297,-0.259 -8.088,-0.807 -1.011,-0.069 0.115,-2.097 0.473,-3.007 3.565,-4.914 9.647,-9.418 14.774,-11.763 2.481,-1.141 5.827,-1.734 8.296,-0.536 0.243,0.115 0.297,0.53 0.438,0.657 0.504,0.484 -3.327,3.128 -6.866,6.169 C 5.669,-6.394 0.999,-1.543 0,0" />
          </g>
          <g
             transform="translate(211.7388,765.5054)"
             id="g1085">
            <path
               inkscape:connector-curvature="0"
               id="path1087"
               style="fill:none;stroke:#ffffff;stroke-width:1;stroke-linecap:butt;stroke-linejoin:bevel;stroke-miterlimit:4;stroke-dasharray:none;stroke-opacity:1"
               d="m 0,0 c -1.793,1.146 -0.297,-0.259 -8.088,-0.807 -1.011,-0.069 0.115,-2.097 0.473,-3.007 3.565,-4.914 9.647,-9.418 14.774,-11.763 2.481,-1.141 5.827,-1.734 8.296,-0.536 0.243,0.115 0.297,0.53 0.438,0.657 0.504,0.484 -3.327,3.128 -6.866,6.169 C 5.669,-6.394 0.999,-1.543 0,0 Z" />
          </g>
          <g
             transform="translate(162.6753,806.688)"
             id="g1089">
            <path
               inkscape:connector-curvature="0"
               id="path1091"
               style="fill:#2a3586;fill-opacity:1;fill-rule:nonzero;stroke:none"
               d="m 0,0 c 6.18,0 11.198,-4.752 11.198,-10.605 0,-5.853 -5.018,-10.6 -11.198,-10.6 -6.178,0 -11.189,4.747 -11.189,10.6 C -11.189,-4.752 -6.178,0 0,0" />
          </g>
          <g
             transform="translate(162.6753,806.688)"
             id="g1093">
            <path
               inkscape:connector-curvature="0"
               id="path1095"
               style="fill:none;stroke:#ffffff;stroke-width:1;stroke-linecap:butt;stroke-linejoin:miter;stroke-miterlimit:4;stroke-dasharray:none;stroke-opacity:1"
               d="m 0,0 c 6.18,0 11.198,-4.752 11.198,-10.605 0,-5.853 -5.018,-10.6 -11.198,-10.6 -6.178,0 -11.189,4.747 -11.189,10.6 C -11.189,-4.752 -6.178,0 0,0 Z" />
          </g>
          <g
             transform="translate(165.6499,800.5469)"
             id="g1097">
            <path
               inkscape:connector-curvature="0"
               id="path1099"
               style="fill:#2a3586;fill-opacity:1;fill-rule:nonzero;stroke:none"
               d="m 0,0 c -0.535,0.853 0.225,2.385 1.903,1.872 6.484,-2.788 3.285,-13.52 -3.88,-13.22 -1.101,-0.029 -1.453,0.985 -0.632,1.532 C 0.523,-7.799 3.157,-4.839 0,0" />
          </g>
          <g
             transform="translate(165.6499,800.5469)"
             id="g1101">
            <path
               inkscape:connector-curvature="0"
               id="path1103"
               style="fill:none;stroke:#000000;stroke-width:0.5;stroke-linecap:butt;stroke-linejoin:bevel;stroke-miterlimit:4;stroke-dasharray:none;stroke-opacity:1"
               d="m 0,0 c -0.535,0.853 0.225,2.385 1.903,1.872 6.484,-2.788 3.285,-13.52 -3.88,-13.22 -1.101,-0.029 -1.453,0.985 -0.632,1.532 C 0.523,-7.799 3.157,-4.839 0,0 Z" />
          </g>
          <g
             transform="translate(201.6494,722.1045)"
             id="g1105">
            <path
               inkscape:connector-curvature="0"
               id="path1107"
               style="fill:#2a3586;fill-opacity:1;fill-rule:nonzero;stroke:none"
               d="m 0,0 c 0.723,7.633 -5.76,16.372 -16.093,17.219 -3.595,0.293 -8.995,0.316 -12.121,-2.351 -2.962,-2.529 4.779,-7.811 8.842,-8.191 5.443,-0.507 8.309,1.97 9.282,3.41 0.334,0.484 0.936,0.288 1.15,-0.208 2.468,-17.462 -16.317,-21.442 -30.024,-25.117 2.839,-0.761 5.46,-1.509 7.63,-2.361 3.84,-1.509 7.122,-3.135 9.92,-4.841 C -10.66,-17.176 -0.948,-10.08 0,0" />
          </g>
          <g
             transform="translate(201.6494,722.1045)"
             id="g1109">
            <path
               inkscape:connector-curvature="0"
               id="path1111"
               style="fill:none;stroke:#ffffff;stroke-width:1;stroke-linecap:butt;stroke-linejoin:bevel;stroke-miterlimit:4;stroke-dasharray:none;stroke-opacity:1"
               d="m 0,0 c 0.723,7.633 -5.76,16.372 -16.093,17.219 -3.595,0.293 -8.995,0.316 -12.121,-2.351 -2.962,-2.529 4.779,-7.811 8.842,-8.191 5.443,-0.507 8.309,1.97 9.282,3.41 0.334,0.484 0.936,0.288 1.15,-0.208 2.468,-17.462 -16.317,-21.442 -30.024,-25.117 2.839,-0.761 5.46,-1.509 7.63,-2.361 3.84,-1.509 7.122,-3.135 9.92,-4.841 C -10.66,-17.176 -0.948,-10.08 0,0 Z" />
          </g>
          <g
             transform="translate(175.8608,652.2974)"
             id="g1113">
            <path
               inkscape:connector-curvature="0"
               id="path1115"
               style="fill:#2a3586;fill-opacity:1;fill-rule:nonzero;stroke:#ffffff;stroke-width:1;stroke-linecap:butt;stroke-linejoin:bevel;stroke-miterlimit:4;stroke-dasharray:none;stroke-opacity:1"
               d="m 0,0 v 0 c -4.248,2.558 -8.885,4.82 -13.176,7.096 -2.508,1.33 -4.898,2.665 -7.021,4.068 -12.134,8.013 -12.231,21.66 5.455,28.342 0.51,0.193 1.034,0.39 1.566,0.59 -5.293,1.989 -11.581,4.348 -17.552,7.271 -21.46,-13.075 -14.263,-30.899 -7.764,-37.977 3.19,-3.467 7.524,-6.512 12.138,-9.39 4.39,-2.738 9.029,-5.325 13.178,-7.979 3.149,-2.013 6.014,-4.063 8.269,-6.25" />
          </g>
          <g
             transform="translate(180.2344,699.667)"
             id="g1117">
            <path
               inkscape:connector-curvature="0"
               id="path1119"
               style="fill:#2a3586;fill-opacity:1;fill-rule:nonzero;stroke:none"
               d="m 0,0 c -2.8,1.706 -6.081,3.332 -9.921,4.842 -2.17,0.851 -4.791,1.599 -7.63,2.361 -13.707,3.675 -32.492,7.655 -30.023,25.117 0.213,0.495 0.815,0.691 1.143,0.207 0.973,-1.44 3.838,-3.917 9.287,-3.41 4.064,0.38 11.806,5.663 8.843,8.191 -3.126,2.668 -8.526,2.645 -12.12,2.351 -10.334,-0.846 -16.817,-9.586 -16.1,-17.219 0.952,-10.08 10.664,-17.175 21.418,-22.44 5.971,-2.923 12.259,-5.281 17.552,-7.271 0.532,-0.2 1.056,-0.397 1.565,-0.59 17.688,-6.682 17.59,-20.329 5.457,-28.343 -2.124,-1.403 -4.514,-2.737 -7.022,-4.067 4.291,-2.276 8.928,-4.537 13.177,-7.096 4.612,2.876 8.946,5.923 12.133,9.389 C 14.264,-30.899 21.462,-13.076 0,0" />
          </g>
          <g
             transform="translate(180.2344,699.667)"
             id="g1121">
            <path
               inkscape:connector-curvature="0"
               id="path1123"
               style="fill:none;stroke:#ffffff;stroke-width:1;stroke-linecap:butt;stroke-linejoin:bevel;stroke-miterlimit:4;stroke-dasharray:none;stroke-opacity:1"
               d="m 0,0 c -2.8,1.706 -6.081,3.332 -9.921,4.842 -2.17,0.851 -4.791,1.599 -7.63,2.361 -13.707,3.675 -32.492,7.655 -30.023,25.117 0.213,0.495 0.815,0.691 1.143,0.207 0.973,-1.44 3.838,-3.917 9.287,-3.41 4.064,0.38 11.806,5.663 8.843,8.191 -3.126,2.668 -8.526,2.645 -12.12,2.351 -10.334,-0.846 -16.817,-9.586 -16.1,-17.219 0.952,-10.08 10.664,-17.175 21.418,-22.44 5.971,-2.923 12.259,-5.281 17.552,-7.271 0.532,-0.2 1.056,-0.397 1.565,-0.59 17.688,-6.682 17.59,-20.329 5.457,-28.343 -2.124,-1.403 -4.514,-2.737 -7.022,-4.067 4.291,-2.276 8.928,-4.537 13.177,-7.096 4.612,2.876 8.946,5.923 12.133,9.389 C 14.264,-30.899 21.462,-13.076 0,0 Z" />
          </g>
          <g
             transform="translate(216.3608,606.1782)"
             id="g1125">
            <path
               inkscape:connector-curvature="0"
               id="path1127"
               style="fill:#2a3586;fill-opacity:1;fill-rule:nonzero;stroke:none"
               d="m 0,0 c 3.303,4.717 -41.637,97.366 -52.208,97.479 -14.113,0.149 -123.487,-189.765 -114.278,-206.998 74.252,83.435 173.585,84.138 367.921,87.552 -141.054,13.676 -236.563,3.234 -299.934,-4.991 5.52,0.716 37.831,67.678 46.351,67.678 0,0 24.191,-42.218 26.75,-42.509 C -22.839,-2.079 -3.303,-4.716 0,0" />
          </g>
          <g
             transform="translate(216.3608,606.1782)"
             id="g1129">
            <path
               inkscape:connector-curvature="0"
               id="path1131"
               style="fill:none;stroke:#ffffff;stroke-width:1;stroke-linecap:butt;stroke-linejoin:bevel;stroke-miterlimit:4;stroke-dasharray:none;stroke-opacity:1"
               d="m 0,0 c 3.303,4.717 -41.637,97.366 -52.208,97.479 -14.113,0.149 -123.487,-189.765 -114.278,-206.998 74.252,83.435 173.585,84.138 367.921,87.552 -141.054,13.676 -236.563,3.234 -299.934,-4.991 5.52,0.716 37.831,67.678 46.351,67.678 0,0 24.191,-42.218 26.75,-42.509 C -22.839,-2.079 -3.303,-4.716 0,0 Z" />
          </g>
        </g>
      </g>
      <text
         id="text1135"
         style="font-variant:normal;font-weight:bold;font-stretch:normal;font-size:163.85800171px;font-family:Magneto;-inkscape-font-specification:Magneto-Bold;writing-mode:lr-tb;fill:#1c1652;fill-opacity:1;fill-rule:nonzero;stroke:none"
         transform="matrix(1,0,0,-0.94716767,226.4141,597.4062)">
        <tspan
           id="tspan1133"
           sodipodi:role="line"
           y="0"
           x="0 61.28289 217.93114">lms</tspan>
      </text>
      <text
         id="text1139"
         style="font-variant:normal;font-weight:bold;font-stretch:normal;font-size:170.41239929px;font-family:Magneto;-inkscape-font-specification:Magneto-Bold;writing-mode:lr-tb;fill:#d7df23;fill-opacity:1;fill-rule:nonzero;stroke:none"
         transform="matrix(1,0,0,-0.94716758,239.8237,601.9463)">
        <tspan
           id="tspan1137"
           sodipodi:role="line"
           y="0"
           x="0 63.734238 226.6485">lms</tspan>
      </text>
      <text
         id="text1143"
         style="font-variant:normal;font-weight:bold;font-stretch:normal;font-size:31.46069908px;font-family:Magneto;-inkscape-font-specification:Magneto-Bold;writing-mode:lr-tb;fill:#2a3586;fill-opacity:1;fill-rule:nonzero;stroke:none"
         transform="matrix(1,0,0,-0.94716901,413.8882,576.7842)">
        <tspan
           id="tspan1141"
           sodipodi:role="line"
           y="0"
           x="0 30.076429 49.298916 69.779831 81.483215 100.48547 120.30572">medical</tspan>
      </text>
      <g
         id="g1145">
        <g
           clip-path="url(#clipPath1151)"
           id="g1147">
          <g
             transform="translate(211.4077,557.6743)"
             id="g1153">
            <path
               inkscape:connector-curvature="0"
               id="path1155"
               style="fill:#1c1652;fill-opacity:1;fill-rule:nonzero;stroke:none"
               d="M 0,0 C 8.542,2.832 13.92,4.208 20.92,4.167 26.95,4.13 36.337,-65.916 33.587,-67.166 30.837,-68.416 -10.823,-3.588 0,0" />
          </g>
          <g
             transform="translate(211.4077,557.6743)"
             id="g1157">
            <path
               inkscape:connector-curvature="0"
               id="path1159"
               style="fill:none;stroke:#ffffff;stroke-width:1;stroke-linecap:butt;stroke-linejoin:bevel;stroke-miterlimit:4;stroke-dasharray:none;stroke-opacity:1"
               d="M 0,0 C 8.542,2.832 13.92,4.208 20.92,4.167 26.95,4.13 36.337,-65.916 33.587,-67.166 30.837,-68.416 -10.823,-3.588 0,0 Z" />
          </g>
          <g
             transform="translate(211.6401,554.3618)"
             id="g1161">
            <path
               inkscape:connector-curvature="0"
               id="path1163"
               style="fill:#2a3586;fill-opacity:1;fill-rule:nonzero;stroke:none"
               d="M 0,0 C 5.416,2.544 13.499,4.531 17.937,4.493 21.761,4.46 31.056,-57.752 29.312,-58.875 27.569,-59.998 -6.863,-3.223 0,0" />
          </g>
          <g
             transform="translate(211.6401,554.3618)"
             id="g1165">
            <path
               inkscape:connector-curvature="0"
               id="path1167"
               style="fill:none;stroke:#ffffff;stroke-width:1;stroke-linecap:butt;stroke-linejoin:bevel;stroke-miterlimit:4;stroke-dasharray:none;stroke-opacity:1"
               d="M 0,0 C 5.416,2.544 13.499,4.531 17.937,4.493 21.761,4.46 31.056,-57.752 29.312,-58.875 27.569,-59.998 -6.863,-3.223 0,0 Z" />
          </g>
        </g>
      </g>
    </g>
    <g
       id="g6074"
       transform="matrix(0.35277777,0,0,-0.35277777,-5.2851353,329.78727)">
      <g
         id="g6040">
        <g
           id="g6038"
           clip-path="url(#clipPath955)">
          <g
             id="g5864"
             transform="translate(220.6855,598.9629)">
            <path
               d="m 0,0 c 3.529,4.964 -44.485,102.47 -55.779,102.588 -11.293,0.119 -143.568,-219.899 -110.068,-217.792 40.738,2.563 35.276,90.252 348.572,98.117 -194.208,1.653 -290.513,-9.111 -290.513,-9.111 0,0 45.184,79.156 51.991,74.501 0,0 25.928,-49.879 28.662,-50.185 C -24.401,-2.188 -3.528,-4.964 0,0"
               style="fill:#1c1652;fill-opacity:1;fill-rule:nonzero;stroke:none"
               id="path5862"
               inkscape:connector-curvature="0" />
          </g>
          <g
             id="g5868"
             transform="translate(220.6855,598.9629)">
            <path
               d="m 0,0 c 3.529,4.964 -44.485,102.47 -55.779,102.588 -11.293,0.119 -143.568,-219.899 -110.068,-217.792 40.738,2.563 35.276,90.252 348.572,98.117 -194.208,1.653 -290.513,-9.111 -290.513,-9.111 0,0 45.184,79.156 51.991,74.501 0,0 25.928,-49.879 28.662,-50.185 C -24.401,-2.188 -3.528,-4.964 0,0 Z"
               style="fill:none;stroke:#ffffff;stroke-width:1;stroke-linecap:butt;stroke-linejoin:bevel;stroke-miterlimit:4;stroke-dasharray:none;stroke-opacity:1"
               id="path5866"
               inkscape:connector-curvature="0" />
          </g>
          <g
             id="g5872"
             transform="translate(160.2905,557.9473)">
            <path
               d="m 0,0 5.699,2.793 5.008,225.252 H -5.946 Z"
               style="fill:#1c1652;fill-opacity:1;fill-rule:nonzero;stroke:none"
               id="path5870"
               inkscape:connector-curvature="0" />
          </g>
          <g
             id="g5876"
             transform="translate(144.4395,747.8379)">
            <path
               d="m 0,0 c -14.977,-1.79 -28.551,14.811 -21.638,18.712 0.668,1.471 0.475,2.235 -1.125,1.953 -16.279,-2.123 -26.57,10.689 -24.778,24.049 0.119,0.896 -0.53,1.078 -1.054,1.111 -0.607,0.039 -1.09,-0.647 -1.393,-1.111 -5.057,-7.722 -13.624,-12.419 -21.44,-17.372 -8.967,-5.69 -22.844,-12.988 -28.839,-13.968 -5.297,-0.862 -13.624,-1.783 -16.645,2.306 -0.619,0.98 -0.006,1.084 0.738,1.47 9.933,4.725 10.974,3.679 29.178,14.589 15.975,9.578 31.392,22.161 46.215,29.27 6.518,3.123 26.729,5.977 33.779,-3.202 C 5.006,42.166 -11.851,35.353 -12.333,32.589 -13.265,27.251 -7.719,17.333 6.704,20.953 L 8.601,21.521 9.049,2.489 8.401,2.149 C 5.587,0.837 2.753,0.164 0,0"
               style="fill:#1c1652;fill-opacity:1;fill-rule:nonzero;stroke:none"
               id="path5874"
               inkscape:connector-curvature="0" />
          </g>
          <g
             id="g5880"
             transform="translate(90.5273,783.8838)">
            <path
               d="m 0,0 c 0.483,0.515 2.635,1.497 2.759,0.652 0.331,-2.22 1.579,-5.245 2.96,-7.702 0.468,-0.829 -0.56,-1.888 -1.208,-2.613 -9.242,-7.396 -20.149,-14.433 -29.571,-18.392 -3.028,-0.999 -6.387,-1.561 -9.623,-1.313 -2.177,0.164 -5.207,0.046 -6.255,1.861 -0.241,0.426 0.104,1 0.4,1.387 C -25.908,-20.405 -14.693,-12.362 0,0"
               style="fill:#1c1652;fill-opacity:1;fill-rule:nonzero;stroke:none"
               id="path5878"
               inkscape:connector-curvature="0" />
          </g>
          <g
             id="g5884"
             transform="translate(96.416,772.2798)">
            <path
               d="m 0,0 c 0.428,0.431 1.173,0.941 2.021,0.607 1.988,-2.188 3.085,-3.227 5.416,-4.201 0.745,-0.306 1.69,-1.28 0.447,-2.286 -13.05,-10.48 -22.935,-19.398 -35.888,-16.04 -0.415,0.105 -0.317,1.339 0.047,1.543 C -20.271,-16.185 -11.429,-11.57 0,0"
               style="fill:#1c1652;fill-opacity:1;fill-rule:nonzero;stroke:none"
               id="path5882"
               inkscape:connector-curvature="0" />
          </g>
          <g
             id="g5888"
             transform="translate(107.0264,765.9297)">
            <path
               d="M 0,0 C 2.033,1.299 0.337,-0.294 9.173,-0.915 10.317,-0.993 9.042,-3.293 8.635,-4.326 4.593,-9.898 -2.304,-15.008 -8.119,-17.667 c -2.814,-1.294 -6.608,-1.967 -9.408,-0.607 -0.276,0.129 -0.339,0.6 -0.498,0.744 -0.573,0.55 3.774,3.548 7.787,6.997 C -6.429,-7.252 -1.131,-1.75 0,0"
               style="fill:#1c1652;fill-opacity:1;fill-rule:nonzero;stroke:none"
               id="path5886"
               inkscape:connector-curvature="0" />
          </g>
          <g
             id="g5892"
             transform="translate(180.8931,747.8379)">
            <path
               d="m 0,0 c 14.977,-1.79 28.551,14.811 21.639,18.712 -0.67,1.471 -0.475,2.235 1.124,1.953 16.279,-2.123 26.57,10.689 24.777,24.049 -0.117,0.896 0.531,1.078 1.054,1.111 0.608,0.039 1.09,-0.647 1.394,-1.111 5.057,-7.722 13.622,-12.419 21.44,-17.372 8.966,-5.69 22.843,-12.988 28.837,-13.968 5.299,-0.862 13.626,-1.783 16.645,2.306 0.622,0.98 0.008,1.084 -0.737,1.47 -9.932,4.725 -10.975,3.679 -29.177,14.589 C 71.021,41.317 55.604,53.9 40.78,61.009 34.263,64.132 14.052,66.986 7.001,57.807 -5.008,42.166 11.851,35.353 12.333,32.589 13.264,27.251 7.719,17.333 -6.705,20.953 L -8.603,21.521 -9.05,2.489 -8.402,2.149 C -5.588,0.837 -2.751,0.164 0,0"
               style="fill:#1c1652;fill-opacity:1;fill-rule:nonzero;stroke:none"
               id="path5890"
               inkscape:connector-curvature="0" />
          </g>
          <g
             id="g5896"
             transform="translate(234.8062,783.8838)">
            <path
               d="m 0,0 c -0.483,0.515 -2.634,1.497 -2.759,0.652 -0.331,-2.22 -1.58,-5.245 -2.959,-7.702 -0.47,-0.829 0.559,-1.888 1.207,-2.613 9.244,-7.396 20.148,-14.433 29.571,-18.392 3.028,-0.999 6.387,-1.561 9.622,-1.313 2.18,0.164 5.207,0.046 6.255,1.861 0.243,0.426 -0.103,1 -0.399,1.387 C 25.909,-20.405 14.693,-12.362 0,0"
               style="fill:#1c1652;fill-opacity:1;fill-rule:nonzero;stroke:none"
               id="path5894"
               inkscape:connector-curvature="0" />
          </g>
          <g
             id="g5900"
             transform="translate(228.9155,772.2798)">
            <path
               d="M 0,0 C -0.428,0.431 -1.172,0.941 -2.021,0.607 -4.008,-1.581 -5.105,-2.62 -7.436,-3.594 -8.181,-3.9 -9.126,-4.874 -7.885,-5.88 5.166,-16.36 15.05,-25.278 28.005,-21.92 c 0.413,0.105 0.316,1.339 -0.05,1.543 C 20.272,-16.185 11.429,-11.57 0,0"
               style="fill:#1c1652;fill-opacity:1;fill-rule:nonzero;stroke:none"
               id="path5898"
               inkscape:connector-curvature="0" />
          </g>
          <g
             id="g5904"
             transform="translate(218.3066,765.9297)">
            <path
               d="m 0,0 c -2.034,1.299 -0.337,-0.294 -9.173,-0.915 -1.146,-0.078 0.131,-2.378 0.537,-3.411 4.043,-5.572 10.94,-10.682 16.755,-13.341 2.815,-1.294 6.609,-1.967 9.409,-0.607 0.276,0.129 0.338,0.6 0.497,0.744 0.572,0.55 -3.774,3.548 -7.787,6.997 C 6.429,-7.252 1.133,-1.75 0,0"
               style="fill:#1c1652;fill-opacity:1;fill-rule:nonzero;stroke:none"
               id="path5902"
               inkscape:connector-curvature="0" />
          </g>
          <g
             id="g5908"
             transform="translate(162.6616,812.6357)">
            <path
               d="m 0,0 c 7.009,0 12.7,-5.39 12.7,-12.027 0,-6.639 -5.691,-12.022 -12.7,-12.022 -7.007,0 -12.69,5.383 -12.69,12.022 C -12.69,-5.39 -7.007,0 0,0"
               style="fill:#1c1652;fill-opacity:1;fill-rule:nonzero;stroke:none"
               id="path5906"
               inkscape:connector-curvature="0" />
          </g>
          <g
             id="g5912"
             transform="translate(206.8647,716.707)">
            <path
               d="m 0,0 c 0.819,8.657 -6.534,18.568 -18.253,19.528 -4.077,0.333 -10.202,0.359 -13.747,-2.666 -3.358,-2.867 5.421,-8.859 10.029,-9.29 6.173,-0.575 9.422,2.235 10.527,3.868 0.379,0.549 1.062,0.326 1.303,-0.235 2.8,-19.805 -18.505,-24.319 -34.051,-28.487 3.22,-0.864 6.193,-1.711 8.653,-2.678 4.355,-1.712 8.078,-3.556 11.252,-5.491 C -12.09,-19.48 -1.076,-11.432 0,0"
               style="fill:#1c1652;fill-opacity:1;fill-rule:nonzero;stroke:none"
               id="path5910"
               inkscape:connector-curvature="0" />
          </g>
          <g
             id="g5916"
             transform="translate(177.6162,637.5356)">
            <path
               d="m 0,0 v 0 c -4.818,2.901 -10.077,5.467 -14.943,8.047 -2.845,1.509 -5.555,3.023 -7.963,4.614 -13.762,9.089 -13.873,24.566 6.187,32.144 0.578,0.22 1.172,0.444 1.776,0.67 -6.003,2.256 -13.135,4.931 -19.907,8.246 C -59.189,38.892 -51.026,18.677 -43.655,10.65 -40.037,6.718 -35.122,3.263 -29.889,0 c 4.978,-3.105 10.241,-6.038 14.946,-9.048"
               style="fill:#1c1652;fill-opacity:1;fill-rule:nonzero;stroke:none"
               id="path5914"
               inkscape:connector-curvature="0" />
          </g>
          <g
             id="g5920"
             transform="translate(182.5757,691.2593)">
            <path
               d="m 0,0 c -3.175,1.934 -6.896,3.779 -11.251,5.491 -2.461,0.967 -5.434,1.815 -8.653,2.678 -15.546,4.168 -36.851,8.682 -34.051,28.487 0.242,0.561 0.925,0.784 1.297,0.235 1.104,-1.634 4.352,-4.443 10.533,-3.868 4.609,0.432 13.389,6.422 10.029,9.29 -3.545,3.025 -9.67,2.999 -13.747,2.667 C -57.563,44.019 -64.916,34.107 -64.102,25.451 -63.023,14.018 -52.008,5.971 -39.81,0 c 6.772,-3.315 13.903,-5.988 19.906,-8.246 0.603,-0.226 1.196,-0.451 1.774,-0.669 20.06,-7.579 19.95,-23.056 6.189,-32.145 -2.409,-1.592 -5.119,-3.105 -7.963,-4.614 4.865,-2.58 10.125,-5.145 14.944,-8.047 5.231,3.262 10.146,6.718 13.761,10.649 C 16.178,-35.044 24.341,-14.83 0,0"
               style="fill:#1c1652;fill-opacity:1;fill-rule:nonzero;stroke:none"
               id="path5918"
               inkscape:connector-curvature="0" />
          </g>
          <g
             id="g5924"
             transform="translate(161.2988,566.147)">
            <path
               d="M 0,0 3.229,0.646 8.726,217.049 H -5.958 Z"
               style="fill:#2a3586;fill-opacity:1;fill-rule:nonzero;stroke:none"
               id="path5922"
               inkscape:connector-curvature="0" />
          </g>
          <g
             id="g5928"
             transform="translate(161.2988,566.147)">
            <path
               d="M 0,0 3.229,0.646 8.726,217.049 H -5.958 Z"
               style="fill:none;stroke:#ffffff;stroke-width:1;stroke-linecap:butt;stroke-linejoin:bevel;stroke-miterlimit:4;stroke-dasharray:none;stroke-opacity:1"
               id="path5926"
               inkscape:connector-curvature="0" />
          </g>
          <g
             id="g5932"
             transform="translate(146.6069,749.5537)">
            <path
               d="m 0,0 c -13.204,-1.578 -25.172,13.06 -19.078,16.499 0.589,1.296 0.419,1.97 -0.992,1.722 -14.353,-1.872 -23.428,9.425 -21.847,21.205 0.104,0.789 -0.468,0.95 -0.93,0.979 -0.535,0.034 -0.961,-0.571 -1.229,-0.979 -4.458,-6.809 -12.011,-10.951 -18.902,-15.318 -7.907,-5.017 -20.144,-11.452 -25.43,-12.316 -4.67,-0.76 -12.011,-1.572 -14.675,2.034 -0.547,0.863 -0.006,0.956 0.65,1.296 8.758,4.165 9.677,3.243 25.727,12.863 14.086,8.446 27.68,19.54 40.749,25.808 5.748,2.754 23.568,5.271 29.784,-2.823 C 4.416,37.179 -10.448,31.171 -10.874,28.734 -11.695,24.028 -6.806,15.283 5.912,18.475 L 7.584,18.976 7.98,2.195 7.408,1.896 C 4.927,0.738 2.428,0.145 0,0"
               style="fill:#2a3586;fill-opacity:1;fill-rule:nonzero;stroke:none"
               id="path5930"
               inkscape:connector-curvature="0" />
          </g>
          <g
             id="g5936"
             transform="translate(146.6069,749.5537)">
            <path
               d="m 0,0 c -13.204,-1.578 -25.172,13.06 -19.078,16.499 0.589,1.296 0.419,1.97 -0.992,1.722 -14.353,-1.872 -23.428,9.425 -21.847,21.205 0.104,0.789 -0.468,0.95 -0.93,0.979 -0.535,0.034 -0.961,-0.571 -1.229,-0.979 -4.458,-6.809 -12.011,-10.951 -18.902,-15.318 -7.907,-5.017 -20.144,-11.452 -25.43,-12.316 -4.67,-0.76 -12.011,-1.572 -14.675,2.034 -0.547,0.863 -0.006,0.956 0.65,1.296 8.758,4.165 9.677,3.243 25.727,12.863 14.086,8.446 27.68,19.54 40.749,25.808 5.748,2.754 23.568,5.271 29.784,-2.823 C 4.416,37.179 -10.448,31.171 -10.874,28.734 -11.695,24.028 -6.806,15.283 5.912,18.475 L 7.584,18.976 7.98,2.195 7.408,1.896 C 4.927,0.738 2.428,0.145 0,0 Z"
               style="fill:none;stroke:#ffffff;stroke-width:1;stroke-linecap:butt;stroke-linejoin:bevel;stroke-miterlimit:4;stroke-dasharray:none;stroke-opacity:1"
               id="path5934"
               inkscape:connector-curvature="0" />
          </g>
          <g
             id="g5940"
             transform="translate(99.0718,781.3359)">
            <path
               d="M 0,0 C 0.426,0.455 2.323,1.319 2.433,0.576 2.725,-1.383 3.826,-4.05 5.042,-6.216 5.456,-6.947 4.549,-7.88 3.978,-8.52 c -8.149,-6.521 -17.766,-12.726 -26.073,-16.216 -2.671,-0.882 -5.633,-1.377 -8.485,-1.158 -1.921,0.144 -4.592,0.04 -5.516,1.642 -0.213,0.374 0.091,0.881 0.353,1.221 C -22.843,-17.991 -12.955,-10.9 0,0"
               style="fill:#2a3586;fill-opacity:1;fill-rule:nonzero;stroke:none"
               id="path5938"
               inkscape:connector-curvature="0" />
          </g>
          <g
             id="g5944"
             transform="translate(99.0718,781.3359)">
            <path
               d="M 0,0 C 0.426,0.455 2.323,1.319 2.433,0.576 2.725,-1.383 3.826,-4.05 5.042,-6.216 5.456,-6.947 4.549,-7.88 3.978,-8.52 c -8.149,-6.521 -17.766,-12.726 -26.073,-16.216 -2.671,-0.882 -5.633,-1.377 -8.485,-1.158 -1.921,0.144 -4.592,0.04 -5.516,1.642 -0.213,0.374 0.091,0.881 0.353,1.221 C -22.843,-17.991 -12.955,-10.9 0,0 Z"
               style="fill:none;stroke:#ffffff;stroke-width:1;stroke-linecap:butt;stroke-linejoin:bevel;stroke-miterlimit:4;stroke-dasharray:none;stroke-opacity:1"
               id="path5942"
               inkscape:connector-curvature="0" />
          </g>
          <g
             id="g5948"
             transform="translate(104.2646,771.105)">
            <path
               d="m 0,0 c 0.377,0.379 1.034,0.829 1.782,0.535 1.752,-1.93 2.719,-2.846 4.776,-3.704 0.656,-0.27 1.489,-1.129 0.394,-2.016 -11.508,-9.24 -20.223,-17.104 -31.644,-14.143 -0.366,0.093 -0.28,1.182 0.042,1.36 C -17.874,-14.27 -10.078,-10.202 0,0"
               style="fill:#2a3586;fill-opacity:1;fill-rule:nonzero;stroke:none"
               id="path5946"
               inkscape:connector-curvature="0" />
          </g>
          <g
             id="g5952"
             transform="translate(104.2646,771.105)">
            <path
               d="m 0,0 c 0.377,0.379 1.034,0.829 1.782,0.535 1.752,-1.93 2.719,-2.846 4.776,-3.704 0.656,-0.27 1.489,-1.129 0.394,-2.016 -11.508,-9.24 -20.223,-17.104 -31.644,-14.143 -0.366,0.093 -0.28,1.182 0.042,1.36 C -17.874,-14.27 -10.078,-10.202 0,0 Z"
               style="fill:none;stroke:#ffffff;stroke-width:1;stroke-linecap:butt;stroke-linejoin:bevel;stroke-miterlimit:4;stroke-dasharray:none;stroke-opacity:1"
               id="path5950"
               inkscape:connector-curvature="0" />
          </g>
          <g
             id="g5956"
             transform="translate(113.6191,765.5054)">
            <path
               d="M 0,0 C 1.793,1.146 0.298,-0.259 8.089,-0.807 9.098,-0.876 7.974,-2.904 7.615,-3.814 4.051,-8.728 -2.031,-13.232 -7.159,-15.577 c -2.48,-1.141 -5.825,-1.734 -8.296,-0.536 -0.242,0.115 -0.297,0.53 -0.437,0.657 -0.505,0.484 3.326,3.128 6.866,6.169 C -5.668,-6.394 -0.997,-1.543 0,0"
               style="fill:#2a3586;fill-opacity:1;fill-rule:nonzero;stroke:none"
               id="path5954"
               inkscape:connector-curvature="0" />
          </g>
          <g
             id="g5960"
             transform="translate(113.6191,765.5054)">
            <path
               d="M 0,0 C 1.793,1.146 0.298,-0.259 8.089,-0.807 9.098,-0.876 7.974,-2.904 7.615,-3.814 4.051,-8.728 -2.031,-13.232 -7.159,-15.577 c -2.48,-1.141 -5.825,-1.734 -8.296,-0.536 -0.242,0.115 -0.297,0.53 -0.437,0.657 -0.505,0.484 3.326,3.128 6.866,6.169 C -5.668,-6.394 -0.997,-1.543 0,0 Z"
               style="fill:none;stroke:#ffffff;stroke-width:1;stroke-linecap:butt;stroke-linejoin:bevel;stroke-miterlimit:4;stroke-dasharray:none;stroke-opacity:1"
               id="path5958"
               inkscape:connector-curvature="0" />
          </g>
          <g
             id="g5964"
             transform="translate(178.75,749.5537)">
            <path
               d="m 0,0 c 13.205,-1.578 25.174,13.06 19.08,16.499 -0.591,1.296 -0.42,1.97 0.991,1.722 14.353,-1.872 23.428,9.425 21.846,21.205 -0.103,0.789 0.469,0.95 0.93,0.979 0.537,0.034 0.962,-0.571 1.229,-0.979 4.459,-6.809 12.012,-10.951 18.903,-15.318 7.907,-5.017 20.144,-11.452 25.428,-12.316 4.673,-0.76 12.013,-1.572 14.676,2.034 0.548,0.863 0.008,0.956 -0.65,1.296 -8.758,4.165 -9.676,3.243 -25.726,12.863 C 62.622,36.431 49.027,47.525 35.958,53.793 30.21,56.547 12.39,59.064 6.174,50.97 -4.415,37.179 10.449,31.171 10.875,28.734 11.696,24.028 6.806,15.283 -5.912,18.475 L -7.584,18.976 -7.979,2.195 -7.408,1.896 C -4.926,0.738 -2.426,0.145 0,0"
               style="fill:#2a3586;fill-opacity:1;fill-rule:nonzero;stroke:none"
               id="path5962"
               inkscape:connector-curvature="0" />
          </g>
          <g
             id="g5968"
             transform="translate(178.75,749.5537)">
            <path
               d="m 0,0 c 13.205,-1.578 25.174,13.06 19.08,16.499 -0.591,1.296 -0.42,1.97 0.991,1.722 14.353,-1.872 23.428,9.425 21.846,21.205 -0.103,0.789 0.469,0.95 0.93,0.979 0.537,0.034 0.962,-0.571 1.229,-0.979 4.459,-6.809 12.012,-10.951 18.903,-15.318 7.907,-5.017 20.144,-11.452 25.428,-12.316 4.673,-0.76 12.013,-1.572 14.676,2.034 0.548,0.863 0.008,0.956 -0.65,1.296 -8.758,4.165 -9.676,3.243 -25.726,12.863 C 62.622,36.431 49.027,47.525 35.958,53.793 30.21,56.547 12.39,59.064 6.174,50.97 -4.415,37.179 10.449,31.171 10.875,28.734 11.696,24.028 6.806,15.283 -5.912,18.475 L -7.584,18.976 -7.979,2.195 -7.408,1.896 C -4.926,0.738 -2.426,0.145 0,0 Z"
               style="fill:none;stroke:#ffffff;stroke-width:1;stroke-linecap:butt;stroke-linejoin:bevel;stroke-miterlimit:4;stroke-dasharray:none;stroke-opacity:1"
               id="path5966"
               inkscape:connector-curvature="0" />
          </g>
          <g
             id="g5972"
             transform="translate(226.2876,781.3359)">
            <path
               d="m 0,0 c -0.426,0.455 -2.323,1.319 -2.434,0.576 -0.292,-1.959 -1.392,-4.626 -2.608,-6.792 -0.415,-0.731 0.492,-1.664 1.064,-2.304 8.149,-6.521 17.765,-12.726 26.073,-16.216 2.671,-0.882 5.632,-1.377 8.485,-1.158 1.921,0.144 4.59,0.04 5.515,1.642 0.214,0.374 -0.091,0.881 -0.352,1.221 C 22.844,-17.991 12.954,-10.9 0,0 Z"
               style="fill:#2a3586;fill-opacity:1;fill-rule:nonzero;stroke:none"
               id="path5970"
               inkscape:connector-curvature="0" />
          </g>
          <g
             id="g5976"
             transform="translate(226.2876,781.3359)">
            <path
               d="m 0,0 c -0.426,0.455 -2.323,1.319 -2.434,0.576 -0.292,-1.959 -1.392,-4.626 -2.608,-6.792 -0.415,-0.731 0.492,-1.664 1.064,-2.304 8.149,-6.521 17.765,-12.726 26.073,-16.216 2.671,-0.882 5.632,-1.377 8.485,-1.158 1.921,0.144 4.59,0.04 5.515,1.642 0.214,0.374 -0.091,0.881 -0.352,1.221 C 22.844,-17.991 12.954,-10.9 0,0 Z"
               style="fill:none;stroke:#ffffff;stroke-width:1;stroke-linecap:butt;stroke-linejoin:bevel;stroke-miterlimit:4;stroke-dasharray:none;stroke-opacity:1"
               id="path5974"
               inkscape:connector-curvature="0" />
          </g>
          <g
             id="g5980"
             transform="translate(221.0933,771.105)">
            <path
               d="m 0,0 c -0.377,0.379 -1.034,0.829 -1.782,0.535 -1.752,-1.93 -2.719,-2.846 -4.775,-3.704 -0.656,-0.27 -1.49,-1.129 -0.395,-2.016 11.507,-9.24 20.222,-17.104 31.644,-14.143 0.365,0.093 0.28,1.182 -0.043,1.36 C 17.874,-14.27 10.077,-10.202 0,0"
               style="fill:#2a3586;fill-opacity:1;fill-rule:nonzero;stroke:none"
               id="path5978"
               inkscape:connector-curvature="0" />
          </g>
          <g
             id="g5984"
             transform="translate(221.0933,771.105)">
            <path
               d="m 0,0 c -0.377,0.379 -1.034,0.829 -1.782,0.535 -1.752,-1.93 -2.719,-2.846 -4.775,-3.704 -0.656,-0.27 -1.49,-1.129 -0.395,-2.016 11.507,-9.24 20.222,-17.104 31.644,-14.143 0.365,0.093 0.28,1.182 -0.043,1.36 C 17.874,-14.27 10.077,-10.202 0,0 Z"
               style="fill:none;stroke:#ffffff;stroke-width:1;stroke-linecap:butt;stroke-linejoin:bevel;stroke-miterlimit:4;stroke-dasharray:none;stroke-opacity:1"
               id="path5982"
               inkscape:connector-curvature="0" />
          </g>
          <g
             id="g5988"
             transform="translate(211.7388,765.5054)">
            <path
               d="m 0,0 c -1.793,1.146 -0.297,-0.259 -8.088,-0.807 -1.011,-0.069 0.115,-2.097 0.473,-3.007 3.565,-4.914 9.647,-9.418 14.774,-11.763 2.481,-1.141 5.827,-1.734 8.296,-0.536 0.243,0.115 0.297,0.53 0.438,0.657 0.504,0.484 -3.327,3.128 -6.866,6.169 C 5.669,-6.394 0.999,-1.543 0,0"
               style="fill:#2a3586;fill-opacity:1;fill-rule:nonzero;stroke:none"
               id="path5986"
               inkscape:connector-curvature="0" />
          </g>
          <g
             id="g5992"
             transform="translate(211.7388,765.5054)">
            <path
               d="m 0,0 c -1.793,1.146 -0.297,-0.259 -8.088,-0.807 -1.011,-0.069 0.115,-2.097 0.473,-3.007 3.565,-4.914 9.647,-9.418 14.774,-11.763 2.481,-1.141 5.827,-1.734 8.296,-0.536 0.243,0.115 0.297,0.53 0.438,0.657 0.504,0.484 -3.327,3.128 -6.866,6.169 C 5.669,-6.394 0.999,-1.543 0,0 Z"
               style="fill:none;stroke:#ffffff;stroke-width:1;stroke-linecap:butt;stroke-linejoin:bevel;stroke-miterlimit:4;stroke-dasharray:none;stroke-opacity:1"
               id="path5990"
               inkscape:connector-curvature="0" />
          </g>
          <g
             id="g5996"
             transform="translate(162.6753,806.688)">
            <path
               d="m 0,0 c 6.18,0 11.198,-4.752 11.198,-10.605 0,-5.853 -5.018,-10.6 -11.198,-10.6 -6.178,0 -11.189,4.747 -11.189,10.6 C -11.189,-4.752 -6.178,0 0,0"
               style="fill:#2a3586;fill-opacity:1;fill-rule:nonzero;stroke:none"
               id="path5994"
               inkscape:connector-curvature="0" />
          </g>
          <g
             id="g6000"
             transform="translate(162.6753,806.688)">
            <path
               d="m 0,0 c 6.18,0 11.198,-4.752 11.198,-10.605 0,-5.853 -5.018,-10.6 -11.198,-10.6 -6.178,0 -11.189,4.747 -11.189,10.6 C -11.189,-4.752 -6.178,0 0,0 Z"
               style="fill:none;stroke:#ffffff;stroke-width:1;stroke-linecap:butt;stroke-linejoin:miter;stroke-miterlimit:4;stroke-dasharray:none;stroke-opacity:1"
               id="path5998"
               inkscape:connector-curvature="0" />
          </g>
          <g
             id="g6004"
             transform="translate(165.6499,800.5469)">
            <path
               d="m 0,0 c -0.535,0.853 0.225,2.385 1.903,1.872 6.484,-2.788 3.285,-13.52 -3.88,-13.22 -1.101,-0.029 -1.453,0.985 -0.632,1.532 C 0.523,-7.799 3.157,-4.839 0,0"
               style="fill:#2a3586;fill-opacity:1;fill-rule:nonzero;stroke:none"
               id="path6002"
               inkscape:connector-curvature="0" />
          </g>
          <g
             id="g6008"
             transform="translate(165.6499,800.5469)">
            <path
               d="m 0,0 c -0.535,0.853 0.225,2.385 1.903,1.872 6.484,-2.788 3.285,-13.52 -3.88,-13.22 -1.101,-0.029 -1.453,0.985 -0.632,1.532 C 0.523,-7.799 3.157,-4.839 0,0 Z"
               style="fill:none;stroke:#000000;stroke-width:0.5;stroke-linecap:butt;stroke-linejoin:bevel;stroke-miterlimit:4;stroke-dasharray:none;stroke-opacity:1"
               id="path6006"
               inkscape:connector-curvature="0" />
          </g>
          <g
             id="g6012"
             transform="translate(201.6494,722.1045)">
            <path
               d="m 0,0 c 0.723,7.633 -5.76,16.372 -16.093,17.219 -3.595,0.293 -8.995,0.316 -12.121,-2.351 -2.962,-2.529 4.779,-7.811 8.842,-8.191 5.443,-0.507 8.309,1.97 9.282,3.41 0.334,0.484 0.936,0.288 1.15,-0.208 2.468,-17.462 -16.317,-21.442 -30.024,-25.117 2.839,-0.761 5.46,-1.509 7.63,-2.361 3.84,-1.509 7.122,-3.135 9.92,-4.841 C -10.66,-17.176 -0.948,-10.08 0,0"
               style="fill:#2a3586;fill-opacity:1;fill-rule:nonzero;stroke:none"
               id="path6010"
               inkscape:connector-curvature="0" />
          </g>
          <g
             id="g6016"
             transform="translate(201.6494,722.1045)">
            <path
               d="m 0,0 c 0.723,7.633 -5.76,16.372 -16.093,17.219 -3.595,0.293 -8.995,0.316 -12.121,-2.351 -2.962,-2.529 4.779,-7.811 8.842,-8.191 5.443,-0.507 8.309,1.97 9.282,3.41 0.334,0.484 0.936,0.288 1.15,-0.208 2.468,-17.462 -16.317,-21.442 -30.024,-25.117 2.839,-0.761 5.46,-1.509 7.63,-2.361 3.84,-1.509 7.122,-3.135 9.92,-4.841 C -10.66,-17.176 -0.948,-10.08 0,0 Z"
               style="fill:none;stroke:#ffffff;stroke-width:1;stroke-linecap:butt;stroke-linejoin:bevel;stroke-miterlimit:4;stroke-dasharray:none;stroke-opacity:1"
               id="path6014"
               inkscape:connector-curvature="0" />
          </g>
          <g
             id="g6020"
             transform="translate(175.8608,652.2974)">
            <path
               d="m 0,0 v 0 c -4.248,2.558 -8.885,4.82 -13.176,7.096 -2.508,1.33 -4.898,2.665 -7.021,4.068 -12.134,8.013 -12.231,21.66 5.455,28.342 0.51,0.193 1.034,0.39 1.566,0.59 -5.293,1.989 -11.581,4.348 -17.552,7.271 -21.46,-13.075 -14.263,-30.899 -7.764,-37.977 3.19,-3.467 7.524,-6.512 12.138,-9.39 4.39,-2.738 9.029,-5.325 13.178,-7.979 3.149,-2.013 6.014,-4.063 8.269,-6.25"
               style="fill:#2a3586;fill-opacity:1;fill-rule:nonzero;stroke:#ffffff;stroke-width:1;stroke-linecap:butt;stroke-linejoin:bevel;stroke-miterlimit:4;stroke-dasharray:none;stroke-opacity:1"
               id="path6018"
               inkscape:connector-curvature="0" />
          </g>
          <g
             id="g6024"
             transform="translate(180.2344,699.667)">
            <path
               d="m 0,0 c -2.8,1.706 -6.081,3.332 -9.921,4.842 -2.17,0.851 -4.791,1.599 -7.63,2.361 -13.707,3.675 -32.492,7.655 -30.023,25.117 0.213,0.495 0.815,0.691 1.143,0.207 0.973,-1.44 3.838,-3.917 9.287,-3.41 4.064,0.38 11.806,5.663 8.843,8.191 -3.126,2.668 -8.526,2.645 -12.12,2.351 -10.334,-0.846 -16.817,-9.586 -16.1,-17.219 0.952,-10.08 10.664,-17.175 21.418,-22.44 5.971,-2.923 12.259,-5.281 17.552,-7.271 0.532,-0.2 1.056,-0.397 1.565,-0.59 17.688,-6.682 17.59,-20.329 5.457,-28.343 -2.124,-1.403 -4.514,-2.737 -7.022,-4.067 4.291,-2.276 8.928,-4.537 13.177,-7.096 4.612,2.876 8.946,5.923 12.133,9.389 C 14.264,-30.899 21.462,-13.076 0,0"
               style="fill:#2a3586;fill-opacity:1;fill-rule:nonzero;stroke:none"
               id="path6022"
               inkscape:connector-curvature="0" />
          </g>
          <g
             id="g6028"
             transform="translate(180.2344,699.667)">
            <path
               d="m 0,0 c -2.8,1.706 -6.081,3.332 -9.921,4.842 -2.17,0.851 -4.791,1.599 -7.63,2.361 -13.707,3.675 -32.492,7.655 -30.023,25.117 0.213,0.495 0.815,0.691 1.143,0.207 0.973,-1.44 3.838,-3.917 9.287,-3.41 4.064,0.38 11.806,5.663 8.843,8.191 -3.126,2.668 -8.526,2.645 -12.12,2.351 -10.334,-0.846 -16.817,-9.586 -16.1,-17.219 0.952,-10.08 10.664,-17.175 21.418,-22.44 5.971,-2.923 12.259,-5.281 17.552,-7.271 0.532,-0.2 1.056,-0.397 1.565,-0.59 17.688,-6.682 17.59,-20.329 5.457,-28.343 -2.124,-1.403 -4.514,-2.737 -7.022,-4.067 4.291,-2.276 8.928,-4.537 13.177,-7.096 4.612,2.876 8.946,5.923 12.133,9.389 C 14.264,-30.899 21.462,-13.076 0,0 Z"
               style="fill:none;stroke:#ffffff;stroke-width:1;stroke-linecap:butt;stroke-linejoin:bevel;stroke-miterlimit:4;stroke-dasharray:none;stroke-opacity:1"
               id="path6026"
               inkscape:connector-curvature="0" />
          </g>
          <g
             id="g6032"
             transform="translate(216.3608,606.1782)">
            <path
               d="m 0,0 c 3.303,4.717 -41.637,97.366 -52.208,97.479 -14.113,0.149 -123.487,-189.765 -114.278,-206.998 74.252,83.435 173.585,84.138 367.921,87.552 -141.054,13.676 -236.563,3.234 -299.934,-4.991 5.52,0.716 37.831,67.678 46.351,67.678 0,0 24.191,-42.218 26.75,-42.509 C -22.839,-2.079 -3.303,-4.716 0,0"
               style="fill:#2a3586;fill-opacity:1;fill-rule:nonzero;stroke:none"
               id="path6030"
               inkscape:connector-curvature="0" />
          </g>
          <g
             id="g6036"
             transform="translate(216.3608,606.1782)">
            <path
               d="m 0,0 c 3.303,4.717 -41.637,97.366 -52.208,97.479 -14.113,0.149 -123.487,-189.765 -114.278,-206.998 74.252,83.435 173.585,84.138 367.921,87.552 -141.054,13.676 -236.563,3.234 -299.934,-4.991 5.52,0.716 37.831,67.678 46.351,67.678 0,0 24.191,-42.218 26.75,-42.509 C -22.839,-2.079 -3.303,-4.716 0,0 Z"
               style="fill:none;stroke:#ffffff;stroke-width:1;stroke-linecap:butt;stroke-linejoin:bevel;stroke-miterlimit:4;stroke-dasharray:none;stroke-opacity:1"
               id="path6034"
               inkscape:connector-curvature="0" />
          </g>
        </g>
      </g>
      <text
         transform="matrix(1,0,0,-0.94716767,226.4141,597.4062)"
         style="font-variant:normal;font-weight:bold;font-stretch:normal;font-size:163.85800171px;font-family:Magneto;-inkscape-font-specification:Magneto-Bold;writing-mode:lr-tb;fill:#1c1652;fill-opacity:1;fill-rule:nonzero;stroke:none"
         id="text6044">
        <tspan
           x="0 61.28289 217.93114"
           y="0"
           sodipodi:role="line"
           id="tspan6042">lms</tspan>
      </text>
      <text
         transform="matrix(1,0,0,-0.94716758,239.8237,601.9463)"
         style="font-variant:normal;font-weight:bold;font-stretch:normal;font-size:170.41239929px;font-family:Magneto;-inkscape-font-specification:Magneto-Bold;writing-mode:lr-tb;fill:#d7df23;fill-opacity:1;fill-rule:nonzero;stroke:none"
         id="text6048">
        <tspan
           x="0 63.734238 226.6485"
           y="0"
           sodipodi:role="line"
           id="tspan6046">lms</tspan>
      </text>
      <text
         transform="matrix(1,0,0,-0.94716901,413.8882,576.7842)"
         style="font-variant:normal;font-weight:bold;font-stretch:normal;font-size:31.46069908px;font-family:Magneto;-inkscape-font-specification:Magneto-Bold;writing-mode:lr-tb;fill:#2a3586;fill-opacity:1;fill-rule:nonzero;stroke:none"
         id="text6052">
        <tspan
           x="0 30.076429 49.298916 69.779831 81.483215 100.48547 120.30572"
           y="0"
           sodipodi:role="line"
           id="tspan6050">medical</tspan>
      </text>
      <g
         id="g6072">
        <g
           id="g6070"
           clip-path="url(#clipPath1151)">
          <g
             id="g6056"
             transform="translate(211.4077,557.6743)">
            <path
               d="M 0,0 C 8.542,2.832 13.92,4.208 20.92,4.167 26.95,4.13 36.337,-65.916 33.587,-67.166 30.837,-68.416 -10.823,-3.588 0,0"
               style="fill:#1c1652;fill-opacity:1;fill-rule:nonzero;stroke:none"
               id="path6054"
               inkscape:connector-curvature="0" />
          </g>
          <g
             id="g6060"
             transform="translate(211.4077,557.6743)">
            <path
               d="M 0,0 C 8.542,2.832 13.92,4.208 20.92,4.167 26.95,4.13 36.337,-65.916 33.587,-67.166 30.837,-68.416 -10.823,-3.588 0,0 Z"
               style="fill:none;stroke:#ffffff;stroke-width:1;stroke-linecap:butt;stroke-linejoin:bevel;stroke-miterlimit:4;stroke-dasharray:none;stroke-opacity:1"
               id="path6058"
               inkscape:connector-curvature="0" />
          </g>
          <g
             id="g6064"
             transform="translate(211.6401,554.3618)">
            <path
               d="M 0,0 C 5.416,2.544 13.499,4.531 17.937,4.493 21.761,4.46 31.056,-57.752 29.312,-58.875 27.569,-59.998 -6.863,-3.223 0,0"
               style="fill:#2a3586;fill-opacity:1;fill-rule:nonzero;stroke:none"
               id="path6062"
               inkscape:connector-curvature="0" />
          </g>
          <g
             id="g6068"
             transform="translate(211.6401,554.3618)">
            <path
               d="M 0,0 C 5.416,2.544 13.499,4.531 17.937,4.493 21.761,4.46 31.056,-57.752 29.312,-58.875 27.569,-59.998 -6.863,-3.223 0,0 Z"
               style="fill:none;stroke:#ffffff;stroke-width:1;stroke-linecap:butt;stroke-linejoin:bevel;stroke-miterlimit:4;stroke-dasharray:none;stroke-opacity:1"
               id="path6066"
               inkscape:connector-curvature="0" />
          </g>
        </g>
      </g>
    </g>
  </g>
</svg>
